<svg width="40" height="40" viewBox="0 0 40 40" fill="none" xmlns="http://www.w3.org/2000/svg">
<g id="ion:reload-circle-sharp" clip-path="url(#clip0_504_2)">
<path id="Vector" d="M20 0C8.97212 0 0 8.97212 0 20C0 31.0279 8.97212 40 20 40C31.0279 40 40 31.0279 40 20C40 8.97212 31.0279 0 20 0ZM31.5385 18.3433H22.9808L26.5269 14.7971L25.9885 14.1712C25.0253 13.1713 23.8294 12.4256 22.5076 12.0009C21.1859 11.5762 19.7795 11.4856 18.4141 11.7373C17.0488 11.989 15.7671 12.5751 14.6837 13.4432C13.6002 14.3113 12.7488 15.4343 12.2055 16.7119C11.6622 17.9895 11.4439 19.3818 11.5702 20.7644C11.6965 22.1469 12.1634 23.4767 12.9293 24.6347C13.6951 25.7927 14.7359 26.7428 15.9587 27.4002C17.1816 28.0577 18.5482 28.4018 19.9365 28.4019C21.674 28.4003 23.3684 27.8611 24.7873 26.8583C26.2062 25.8555 27.2801 24.4383 27.8615 22.801L28.3779 21.3462L31.2788 22.3721L30.7692 23.8269C30.068 25.8114 28.8348 27.5649 27.2043 28.8958C25.5738 30.2268 23.6089 31.0839 21.5242 31.3735C19.4395 31.6631 17.3153 31.3741 15.3838 30.538C13.4522 29.7019 11.7877 28.351 10.5721 26.6328C9.3565 24.9146 8.6366 22.8954 8.49108 20.7957C8.34556 18.696 8.78003 16.5968 9.747 14.7273C10.714 12.8579 12.1762 11.2902 13.9739 10.1957C15.7717 9.10117 17.8357 8.52189 19.9404 8.52115C21.4937 8.51522 23.0318 8.82738 24.4599 9.43842C25.888 10.0494 27.1759 10.9464 28.2442 12.074L28.2981 12.1337L28.7125 12.6144L31.5385 9.78942V18.3433Z" fill="#8C1D40"/>
</g>
<defs>
<clipPath id="clip0_504_2">
<rect width="40" height="40" fill="white"/>
</clipPath>
</defs>
</svg>
